<svg width="112" height="20" viewBox="0 0 112 20" fill="none" xmlns="http://www.w3.org/2000/svg">
<path d="M0.672 12.78C0.672 11.404 0.928 10.196 1.44 9.156C1.968 8.116 2.68 7.316 3.576 6.756C4.472 6.196 5.472 5.916 6.576 5.916C7.52 5.916 8.344 6.108 9.048 6.492C9.768 6.876 10.32 7.38 10.704 8.004V6.108H14.808V19.5H10.704V17.604C10.304 18.228 9.744 18.732 9.024 19.116C8.32 19.5 7.496 19.692 6.552 19.692C5.464 19.692 4.472 19.412 3.576 18.852C2.68 18.276 1.968 17.468 1.44 16.428C0.928 15.372 0.672 14.156 0.672 12.78ZM10.704 12.804C10.704 11.78 10.416 10.972 9.84 10.38C9.28 9.788 8.592 9.492 7.776 9.492C6.96 9.492 6.264 9.788 5.688 10.38C5.128 10.956 4.848 11.756 4.848 12.78C4.848 13.804 5.128 14.62 5.688 15.228C6.264 15.82 6.96 16.116 7.776 16.116C8.592 16.116 9.28 15.82 9.84 15.228C10.416 14.636 10.704 13.828 10.704 12.804ZM16.9611 12.78C16.9611 11.404 17.2171 10.196 17.7291 9.156C18.2571 8.116 18.9691 7.316 19.8651 6.756C20.7611 6.196 21.7611 5.916 22.8651 5.916C23.7451 5.916 24.5451 6.1 25.2651 6.468C26.0011 6.836 26.5771 7.332 26.9931 7.956V1.74H31.0971V19.5H26.9931V17.58C26.6091 18.22 26.0571 18.732 25.3371 19.116C24.6331 19.5 23.8091 19.692 22.8651 19.692C21.7611 19.692 20.7611 19.412 19.8651 18.852C18.9691 18.276 18.2571 17.468 17.7291 16.428C17.2171 15.372 16.9611 14.156 16.9611 12.78ZM26.9931 12.804C26.9931 11.78 26.7051 10.972 26.1291 10.38C25.5691 9.788 24.8811 9.492 24.0651 9.492C23.2491 9.492 22.5531 9.788 21.9771 10.38C21.4171 10.956 21.1371 11.756 21.1371 12.78C21.1371 13.804 21.4171 14.62 21.9771 15.228C22.5531 15.82 23.2491 16.116 24.0651 16.116C24.8811 16.116 25.5691 15.82 26.1291 15.228C26.7051 14.636 26.9931 13.828 26.9931 12.804Z" fill="#BEE137"/>
<path d="M42.2261 5.964C43.7941 5.964 45.0421 6.476 45.9701 7.5C46.9141 8.508 47.3861 9.9 47.3861 11.676V19.5H43.3061V12.228C43.3061 11.332 43.0741 10.636 42.6101 10.14C42.1461 9.644 41.5221 9.396 40.7381 9.396C39.9541 9.396 39.3301 9.644 38.8661 10.14C38.4021 10.636 38.1701 11.332 38.1701 12.228V19.5H34.0661V6.108H38.1701V7.884C38.5861 7.292 39.1461 6.828 39.8501 6.492C40.5541 6.14 41.3461 5.964 42.2261 5.964ZM49.422 12.78C49.422 11.404 49.678 10.196 50.19 9.156C50.718 8.116 51.43 7.316 52.326 6.756C53.222 6.196 54.222 5.916 55.326 5.916C56.27 5.916 57.094 6.108 57.798 6.492C58.518 6.876 59.07 7.38 59.454 8.004V6.108H63.558V19.5H59.454V17.604C59.054 18.228 58.494 18.732 57.774 19.116C57.07 19.5 56.246 19.692 55.302 19.692C54.214 19.692 53.222 19.412 52.326 18.852C51.43 18.276 50.718 17.468 50.19 16.428C49.678 15.372 49.422 14.156 49.422 12.78ZM59.454 12.804C59.454 11.78 59.166 10.972 58.59 10.38C58.03 9.788 57.342 9.492 56.526 9.492C55.71 9.492 55.014 9.788 54.438 10.38C53.878 10.956 53.598 11.756 53.598 12.78C53.598 13.804 53.878 14.62 54.438 15.228C55.014 15.82 55.71 16.116 56.526 16.116C57.342 16.116 58.03 15.82 58.59 15.228C59.166 14.636 59.454 13.828 59.454 12.804ZM73.9911 16.02V19.5H71.9031C70.4151 19.5 69.2551 19.14 68.4231 18.42C67.5911 17.684 67.1751 16.492 67.1751 14.844V9.516H65.5431V6.108H67.1751V2.844H71.2791V6.108H73.9671V9.516H71.2791V14.892C71.2791 15.292 71.3751 15.58 71.5671 15.756C71.7591 15.932 72.0791 16.02 72.5271 16.02H73.9911ZM78.3411 4.716C77.6211 4.716 77.0291 4.508 76.5651 4.092C76.1171 3.66 75.8931 3.132 75.8931 2.508C75.8931 1.868 76.1171 1.34 76.5651 0.923999C77.0291 0.491999 77.6211 0.275999 78.3411 0.275999C79.0451 0.275999 79.6211 0.491999 80.0691 0.923999C80.5331 1.34 80.7651 1.868 80.7651 2.508C80.7651 3.132 80.5331 3.66 80.0691 4.092C79.6211 4.508 79.0451 4.716 78.3411 4.716ZM80.3811 6.108V19.5H76.2771V6.108H80.3811ZM89.3792 15.66L92.2832 6.108H96.6512L91.8992 19.5H86.8352L82.0832 6.108H86.4752L89.3792 15.66ZM111.003 12.588C111.003 12.972 110.979 13.372 110.931 13.788H101.643C101.707 14.62 101.971 15.26 102.435 15.708C102.915 16.14 103.499 16.356 104.187 16.356C105.211 16.356 105.923 15.924 106.323 15.06H110.691C110.467 15.94 110.059 16.732 109.467 17.436C108.891 18.14 108.163 18.692 107.283 19.092C106.403 19.492 105.419 19.692 104.331 19.692C103.019 19.692 101.851 19.412 100.827 18.852C99.8026 18.292 99.0026 17.492 98.4266 16.452C97.8506 15.412 97.5626 14.196 97.5626 12.804C97.5626 11.412 97.8426 10.196 98.4026 9.156C98.9786 8.116 99.7786 7.316 100.803 6.756C101.827 6.196 103.003 5.916 104.331 5.916C105.627 5.916 106.779 6.188 107.787 6.732C108.795 7.276 109.579 8.052 110.139 9.06C110.715 10.068 111.003 11.244 111.003 12.588ZM106.803 11.508C106.803 10.804 106.563 10.244 106.083 9.828C105.603 9.412 105.003 9.204 104.283 9.204C103.595 9.204 103.011 9.404 102.531 9.804C102.067 10.204 101.779 10.772 101.667 11.508H106.803Z" fill="white"/>
</svg>
